<?xml version="1.0" encoding="UTF-8"?><svg id="Calque_1" xmlns="http://www.w3.org/2000/svg" viewBox="0 0 389.55 477.37"><defs><style>.cls-1,.cls-2{fill:#fff;}.cls-3,.cls-4,.cls-5,.cls-2,.cls-6,.cls-7{stroke:#1d1d1b;stroke-miterlimit:10;}.cls-3,.cls-5{stroke-width:3px;}.cls-3,.cls-7{fill:#1d1d1b;}.cls-8,.cls-6{fill:#575756;}.cls-4{stroke-width:5px;}.cls-4,.cls-5{fill:none;}.cls-2,.cls-6{stroke-width:2px;}.cls-9{fill:#2d60ab;}.cls-10{fill:#5dc4f1;}.cls-11{fill:#d9d9d9;}</style></defs><path class="cls-7" d="M360.73,55.07c-.49,8.65,5.72,15.7,12.66,16.38,7.89,.78,16.25-6.75,15.63-16.75-9.43,.12-18.86,.25-28.29,.37Z"/><line class="cls-3" x1="368.92" y1="45.39" x2="368.92" y2="57.63"/><line class="cls-3" x1="379.34" y1="45.39" x2="379.34" y2="55.96"/><g><path class="cls-2" d="M148.62,454.35c-.86-1.45-6.17-10.11-16.56-11.94-10.63-1.87-20.35,4.49-25.03,12.13-3.72,6.07-3.8,12.22-3.66,15.02,4.76,2.03,13.63,5.07,25.03,4.62,13.14-.51,22.77-5.38,27.34-8.09,.15-3.99,0-8.91-.96-14.44-1.27-7.36-3.54-13.35-5.58-17.71,.47-.21,1.75-.85,2.12-2.12,.42-1.44-.58-2.82-.95-3.33-3.55-4.91-24.3-2.87-25.32,2.75-.26,1.44,.79,2.97,2.4,4.43-1.09,2.28-2.18,4.56-3.27,6.83,2.04-.35,7.62-1.02,13.77,1.83,6.58,3.05,9.71,8.23,10.68,10.01Z"/><path class="cls-8" d="M132.45,402.94l.7,23.54c.25,2.52,2.06,4.47,4.11,4.76,2.63,.37,5.55-2.01,5.59-5.44,.32-7.62,.64-15.24,.96-22.86h-11.36Z"/><path class="cls-6" d="M130.61,436.43c-.47-.01-1.07-.07-1.73-.24-.57-.15-1.05-.34-1.44-.52"/><path class="cls-6" d="M145.81,435.06c.51-.09,1.09-.22,1.72-.43,.65-.21,1.21-.46,1.68-.69"/></g><g><path class="cls-2" d="M213.73,456.49c.86-1.45,6.17-10.11,16.56-11.94,10.63-1.87,20.35,4.49,25.03,12.13,3.72,6.07,3.8,12.22,3.66,15.02-4.76,2.03-13.63,5.07-25.03,4.62-13.14-.51-22.77-5.38-27.34-8.09-.15-3.99,0-8.91,.96-14.44,1.27-7.36,3.54-13.35,5.58-17.71-.47-.21-1.75-.85-2.12-2.12-.42-1.44,.58-2.82,.95-3.33,3.55-4.91,24.3-2.87,25.32,2.75,.26,1.44-.79,2.97-2.4,4.43,1.09,2.28,2.18,4.56,3.27,6.83-2.04-.35-7.62-1.02-13.77,1.83-6.58,3.05-9.71,8.23-10.68,10.01Z"/><path class="cls-8" d="M229.9,405.09l-.7,23.54c-.25,2.52-2.06,4.47-4.11,4.76-2.63,.37-5.55-2.01-5.59-5.44-.32-7.62-.64-15.24-.96-22.86h11.36Z"/><path class="cls-6" d="M231.74,438.58c.47-.01,1.07-.07,1.73-.24,.57-.15,1.05-.34,1.44-.52"/><path class="cls-6" d="M216.54,437.2c-.51-.09-1.09-.22-1.72-.43-.65-.21-1.21-.46-1.68-.69"/></g><path class="cls-9" d="M66.64,389.41V80.41c.32-1.94,1.23-5.47,4.24-8.87,5.73-6.48,14.46-7.27,16.12-7.39h181.54c1.48,.31,8.05,1.85,11.88,7.39,2.02,2.93,2.45,5.78,2.54,7.39V389.41H66.64Z"/><rect class="cls-1" x="91.58" y="96.19" width="166.89" height="109.48" rx="11.65" ry="11.65"/><polygon class="cls-10" points="199.23 247.91 150.85 300.27 175.04 308.88 157.48 354.61 207.19 301.26 183.99 292.98 199.23 247.91"/><rect class="cls-10" x="57.84" y="389.41" width="231.81" height="24.79" rx="1.3" ry="1.3"/><path class="cls-4" d="M374.89,72.14c0,15,0,30,0,44.99,0,6.49,0,12.99-.49,19.46-.93,12.47-3.67,24.79-8.09,36.49-6.72,17.76-17.97,34.58-34.59,43.76-12.33,6.81-26.62,8.93-40.52,9.42"/><path class="cls-11" d="M282.96,205.67c.71,0,4.63,0,7.59,1.74,1.93,1.14,2.47,2.44,2.64,2.99v33.11c-.18,.33-1.1,1.84-3.96,2.74-2.9,.91-5.7,.53-6.27,.44v-41.02Z"/><g><ellipse class="cls-11" cx="142.2" cy="56.79" rx="24.25" ry="30.34"/><ellipse class="cls-1" cx="140.29" cy="55.12" rx="24.25" ry="30.34"/></g><g><ellipse class="cls-11" cx="212.67" cy="57.63" rx="24.25" ry="30.34"/><ellipse class="cls-1" cx="210.76" cy="55.96" rx="24.25" ry="30.34"/></g><path class="cls-5" d="M108.38,16.37c4.17-4.02,8.51-8.15,13.95-10.16,2.36-.87,4.85-1.31,7.32-1.75"/><path class="cls-5" d="M224.95,1.38c2.74,1.16,5.53,2.36,7.81,4.28,1.25,1.06,2.32,2.32,3.37,3.58,1.2,1.43,2.41,2.86,3.61,4.29"/><circle class="cls-7" cx="144.05" cy="57.63" r="6.8"/><circle class="cls-7" cx="209.62" cy="57.63" r="6.8"/><path class="cls-4" d="M14.66,369.03c0-15,0-30,0-44.99,0-6.49,0-12.99,.49-19.46,.93-12.47,3.67-24.79,8.09-36.49,6.72-17.76,17.97-34.58,34.59-43.76"/><path class="cls-11" d="M66.64,244.8c-.71,0-4.63,0-7.59-1.74-1.93-1.14-2.47-2.44-2.64-2.99,0-11.04,0-22.08,0-33.11,.18-.33,1.1-1.84,3.96-2.74,2.9-.91,5.7-.53,6.27-.44,0,13.67,0,27.35,0,41.02Z"/><path class="cls-7" d="M28.82,386.1c.49-8.65-5.72-15.7-12.66-16.38-7.89-.78-16.25,6.75-15.63,16.75,9.43-.12,18.86-.25,28.29-.37Z"/><line class="cls-3" x1="20.63" y1="395.78" x2="20.63" y2="383.54"/><line class="cls-3" x1="10.21" y1="395.78" x2="10.21" y2="385.21"/></svg>