<?xml version="1.0" encoding="UTF-8"?><svg id="Calque_1" xmlns="http://www.w3.org/2000/svg" viewBox="0 0 265.31 508.83"><defs><style>.cls-1,.cls-2{fill:#fff;}.cls-3,.cls-4,.cls-5,.cls-6,.cls-2,.cls-7{stroke:#1d1d1b;stroke-miterlimit:10;}.cls-3,.cls-6{stroke-width:3px;}.cls-3,.cls-7,.cls-8{fill:#1d1d1b;}.cls-9,.cls-5{fill:#575756;}.cls-4{stroke-width:5px;}.cls-4,.cls-6{fill:none;}.cls-2{stroke-width:2px;}.cls-10{fill:#2d60ab;}.cls-11{fill:#5dc4f1;}.cls-12{fill:#d9d9d9;}</style></defs><g><path class="cls-2" d="M104.78,484.35c-.92-1.55-6.58-10.78-17.65-12.73-11.33-2-21.7,4.79-26.69,12.93-3.97,6.47-4.06,13.03-3.9,16.01,5.07,2.16,14.53,5.4,26.69,4.93,14.01-.55,24.28-5.74,29.15-8.62,.16-4.26,0-9.5-1.03-15.4-1.36-7.85-3.77-14.24-5.95-18.89,.5-.22,1.87-.9,2.26-2.26,.44-1.53-.62-3.01-1.02-3.55-3.79-5.23-25.91-3.06-27,2.93-.28,1.53,.85,3.17,2.56,4.73-1.16,2.43-2.33,4.86-3.49,7.29,2.18-.37,8.13-1.09,14.68,1.95,7.01,3.25,10.35,8.78,11.39,10.67Z"/><path class="cls-9" d="M87.53,429.54l.75,25.1c.26,2.69,2.19,4.77,4.39,5.07,2.81,.39,5.91-2.15,5.96-5.8,.34-8.13,.68-16.25,1.02-24.38h-12.11Z"/><path class="cls-5" d="M85.58,465.25c-.5-.01-1.14-.08-1.85-.26-.61-.16-1.12-.36-1.53-.55"/><path class="cls-5" d="M101.78,463.79c.54-.09,1.16-.24,1.83-.46,.69-.23,1.29-.49,1.79-.74"/></g><g><path class="cls-2" d="M174.2,486.64c.92-1.55,6.58-10.78,17.65-12.73,11.33-2,21.7,4.79,26.69,12.93,3.97,6.47,4.06,13.03,3.9,16.01-5.07,2.16-14.53,5.4-26.69,4.93-14.01-.55-24.28-5.74-29.15-8.62-.16-4.26,0-9.5,1.03-15.4,1.36-7.85,3.77-14.24,5.95-18.89-.5-.22-1.87-.9-2.26-2.26-.44-1.53,.62-3.01,1.02-3.55,3.79-5.23,25.91-3.06,27,2.93,.28,1.53-.85,3.17-2.56,4.73,1.16,2.43,2.33,4.86,3.49,7.29-2.18-.37-8.13-1.09-14.68,1.95-7.01,3.25-10.35,8.78-11.39,10.67Z"/><path class="cls-9" d="M191.44,431.83l-.75,25.1c-.26,2.69-2.19,4.77-4.39,5.07-2.81,.39-5.91-2.15-5.96-5.8-.34-8.13-.68-16.25-1.02-24.38,4.04,0,8.07,0,12.11,0Z"/><path class="cls-5" d="M193.4,467.54c.5-.01,1.14-.08,1.85-.26,.61-.16,1.12-.36,1.53-.55"/><path class="cls-5" d="M177.2,466.07c-.54-.09-1.16-.24-1.83-.46-.69-.23-1.29-.49-1.79-.74"/></g><path class="cls-10" d="M17.37,415.12V85.65c.34-2.07,1.31-5.83,4.52-9.46,6.11-6.91,15.42-7.75,17.19-7.88H232.64c1.58,.33,8.58,1.97,12.66,7.88,2.16,3.12,2.61,6.16,2.71,7.88V415.12H17.37Z"/><rect class="cls-1" x="43.95" y="102.47" width="177.95" height="116.73" rx="12.42" ry="12.42"/><polygon class="cls-11" points="158.74 264.24 107.16 320.07 132.95 329.25 114.22 378.01 167.22 321.13 142.49 312.29 158.74 264.24"/><rect class="cls-11" x="7.98" y="415.12" width="247.17" height="26.43" rx="1.39" ry="1.39"/><path class="cls-12" d="M248.02,219.2c.76,0,4.93,0,8.09,1.86,2.06,1.22,2.63,2.6,2.81,3.19v35.31c-.2,.35-1.17,1.96-4.22,2.92-3.09,.97-6.07,.56-6.68,.47v-43.74Z"/><g><ellipse class="cls-12" cx="97.93" cy="60.47" rx="25.85" ry="32.35"/><ellipse class="cls-1" cx="95.89" cy="58.68" rx="25.85" ry="32.35"/></g><g><ellipse class="cls-12" cx="173.07" cy="61.36" rx="25.85" ry="32.35"/><ellipse class="cls-1" cx="171.03" cy="59.57" rx="25.85" ry="32.35"/></g><path class="cls-6" d="M61.87,17.36c4.45-4.29,9.08-8.69,14.88-10.83,2.51-.93,5.17-1.4,7.8-1.87"/><path class="cls-6" d="M186.17,1.38c2.93,1.24,5.9,2.51,8.32,4.57,1.33,1.13,2.47,2.48,3.6,3.82,1.28,1.53,2.57,3.05,3.85,4.58"/><circle class="cls-7" cx="99.9" cy="61.36" r="7.25"/><circle class="cls-7" cx="169.82" cy="61.36" r="7.25"/><g><rect class="cls-8" x="111.19" y="202.08" width="51.99" height="89.8" rx="3.23" ry="3.23"/><g><circle class="cls-12" cx="137.19" cy="279.36" r="5.08"/><rect class="cls-12" x="117.49" y="209" width="39.4" height="56.81" rx="3.81" ry="3.81"/></g></g><path class="cls-4" d="M156.89,248.48c10.67,2.53,25.69,5.06,43.7,4.74,33.31-.59,62.47-10.67,62.22-12.01-.04-.2-.76-.35-3.89-.11"/><g><path class="cls-7" d="M140.7,256.8c7.85,4.87,17.62,2.64,21.79-3.51,4.75-7,1.96-18.66-7.73-23.18-4.69,8.9-9.38,17.79-14.06,26.69Z"/><line class="cls-3" x1="134.06" y1="243.25" x2="149.02" y2="251.39"/><line class="cls-3" x1="140.53" y1="234.12" x2="151.02" y2="239.82"/></g><path class="cls-12" d="M17.32,222.89c-.76,0-4.93,0-8.09,1.86-2.06,1.22-2.63,2.6-2.81,3.19,0,11.77,0,23.54,0,35.31,.2,.35,1.17,1.96,4.22,2.92,3.09,.97,6.07,.56,6.68,.47,0-14.58,0-29.16,0-43.74Z"/><path class="cls-4" d="M108.44,252.17c-8.45,5.45-30.85,18.16-58.95,14.38-25.5-3.43-47.87-19.4-46.97-21.65,.24-.59,2.15-.4,3.89-.11"/><g><path class="cls-7" d="M124.63,260.49c-7.85,4.87-17.62,2.64-21.79-3.51-4.75-7-1.96-18.66,7.73-23.18,4.69,8.9,9.38,17.79,14.06,26.69Z"/><line class="cls-3" x1="129.53" y1="247.89" x2="118.06" y2="254.13"/><line class="cls-3" x1="124.22" y1="238.13" x2="114.32" y2="243.51"/></g></svg>